<?xml version="1.0" encoding="UTF-8"?>
<svg width="40px" height="40px" viewBox="0 0 30 30" version="1.1" xmlns="http://www.w3.org/2000/svg" xmlns:xlink="http://www.w3.org/1999/xlink">
    <!-- Generator: Sketch 49.3 (51167) - http://www.bohemiancoding.com/sketch -->
    <title>easy</title>
    <desc>Created with Sketch.</desc>
    <defs></defs>
    <g id="Page-1" stroke="none" stroke-width="1" fill="none" fill-rule="evenodd">
        <g id="Artboard-Copy-2" transform="translate(-668.000000, -433.000000)">
            <g id="easy" transform="translate(668.000000, 433.000000)">
                <rect id="Rectangle-3-Copy-2" fill="#FFFFFF" x="0" y="0" width="40" height="40"></rect>
                <g id="003-one-finger-tap-gesture-of-outlined-hand-symbol-copy" transform="translate(5.000000, 2.000000)" fill="#666666" fill-rule="nonzero">
                    <path d="M4.43638826,10.4494098 L4.43638826,9.4044688 C3.40027088,8.53368465 2.70952596,7.2275312 2.70952596,5.74717538 C2.70952596,3.13482293 4.86808126,0.957839798 7.45841986,0.957839798 C10.0487133,0.957839798 12.2073138,3.1347774 12.2073138,5.74717538 C12.2073138,6.87917201 11.7756208,8.01121417 11.0848307,8.79494266 C11.4302032,8.79494266 11.6893002,8.88204384 12.0345824,8.96909949 C12.7253725,8.0112597 13.0707449,6.87921754 13.0707449,5.66011973 C13.0707449,2.52525126 10.566772,0 7.45841986,0 C4.35006772,0 1.84609481,2.52525126 1.84609481,5.6600742 C1.84609481,7.66290051 2.88221219,9.4044688 4.43638826,10.4494098 Z" id="Shape"></path>
                    <path d="M11.3438826,5.6600742 C11.3438826,3.48313659 9.61702032,1.7415683 7.45841986,1.7415683 C5.29981941,1.7415683 3.57300226,3.48313659 3.57300226,5.6600742 C3.57300226,6.61795953 3.91837472,7.48874368 4.43643341,8.09826981 L4.43643341,5.6600742 C4.43643341,4.00560708 5.81792325,2.61230691 7.45846501,2.61230691 C9.09900677,2.61230691 10.4804966,4.00556155 10.4804966,5.6600742 L10.4804966,8.09826981 C10.998465,7.48874368 11.3438826,6.61795953 11.3438826,5.6600742 Z" id="Shape"></path>
                    <path d="M17.8195937,12.1909781 C17.301535,12.1909781 16.869842,12.3651349 16.5244244,12.6263474 C16.5244244,11.4072496 15.5746727,10.4494098 14.3658691,10.4494098 C13.8478104,10.4494098 13.3297065,10.6235666 12.8979684,10.9718803 C12.5526862,10.1010961 11.7755756,9.57862563 10.9121445,9.57862563 C10.3940858,9.57862563 9.96234763,9.75278246 9.61697517,10.0139949 L9.61697517,5.6600742 C9.61697517,4.44097639 8.66717833,3.48313659 7.45841986,3.48313659 C6.2496614,3.48313659 5.29986456,4.44102192 5.29986456,5.6600742 L5.29986456,13.4100759 C3.57300226,11.8426644 1.67345372,10.6235666 0.464650113,11.8426644 C-1.26221219,13.5842327 2.36419865,16.9802681 5.12717833,22.1179174 C7.11309255,25.6881096 9.87607223,26.9943086 12.6390519,26.9943086 C16.6971558,26.9943086 19.9781941,23.6853288 19.9781941,19.5926661 L19.9781941,14.3679612 C19.9781941,13.1488179 19.0283973,12.1909781 17.8195937,12.1909781 Z M19.114763,16.2836863 L19.114763,19.5926661 C19.114763,22.988747 16.1790971,26.12357 12.6390068,26.12357 C9.3579684,26.12357 7.45841986,24.294946 5.90424379,21.7696492 C2.53683973,16.0224739 0.119232506,13.4101214 1.06902935,12.4522361 C2.01882619,11.4943963 4.35006772,13.5842327 6.16325056,15.5000034 L6.16325056,5.6600742 C6.16325056,4.96344688 6.76767494,4.35387521 7.45841986,4.35387521 C8.14916479,4.35387521 8.75358916,4.96344688 8.75358916,5.6600742 L8.75358916,14.803285 L9.61702032,14.803285 L9.61702032,11.7555177 C9.61702032,11.0588904 10.2213995,10.4493187 10.9121896,10.4493187 C11.6028894,10.4493187 12.2073589,11.0588904 12.2073589,11.7555177 L12.2073589,13.9325464 L13.0707901,13.9325464 L13.0707901,12.6263474 C13.0707901,11.9297201 13.6751693,11.3201484 14.3659594,11.3201484 C15.0566591,11.3201484 15.6611287,11.9297201 15.6611287,12.6263474 L15.6611287,14.803285 L16.5245598,14.803285 L16.5245598,14.3679157 C16.5245598,13.6712884 17.1289391,13.0617167 17.8197291,13.0617167 C18.5104289,13.0617167 19.1148984,13.6712884 19.1148984,14.3679157 L19.1148984,16.2836863 L19.114763,16.2836863 Z" id="Shape"></path>
                </g>
            </g>
        </g>
    </g>
</svg>