<?xml version="1.0" encoding="UTF-8"?>
<svg width="40px" height="40px" viewBox="0 0 30 30" version="1.1" xmlns="http://www.w3.org/2000/svg" xmlns:xlink="http://www.w3.org/1999/xlink">
    <!-- Generator: Sketch 49.3 (51167) - http://www.bohemiancoding.com/sketch -->
    <title>fast</title>
    <desc>Created with Sketch.</desc>
    <defs></defs>
    <g id="Page-1" stroke="none" stroke-width="1" fill="none" fill-rule="evenodd">
        <g id="Artboard-Copy-2" transform="translate(-458.000000, -433.000000)">
            <g id="fast" transform="translate(458.000000, 433.000000)">
                <rect id="Rectangle-3" fill="#FFFFFF" x="0" y="0" width="40" height="40"></rect>
                <g id="013-download-speed-copy" transform="translate(5.000000, 6.000000)" fill="#666666" fill-rule="nonzero">
                    <path d="M20,9.87438487 C20,7.17676768 18.8984262,4.72876198 17.1165902,2.94483294 C17.1026885,2.92657343 17.0878689,2.90870241 17.0710164,2.89206164 C17.0541639,2.87542088 17.0361311,2.86078736 17.0176393,2.8471251 C15.2110164,1.08767159 12.7318689,0 10,0 C7.26813115,0 4.78898361,1.08773634 2.98229508,2.8471251 C2.96380328,2.86085211 2.94577049,2.87548563 2.92891803,2.89206164 C2.91206557,2.90870241 2.8972459,2.92650868 2.88334426,2.94483294 C1.10157377,4.72876198 0,7.17676768 0,9.87438487 C0,12.5115903 1.03993443,14.9908055 2.92819672,16.8558016 C2.92845902,16.8560606 2.92872131,16.8563844 2.92898361,16.8566434 C2.92918033,16.8567729 2.92931148,16.8569671 2.9295082,16.8570966 C2.92977049,16.8573556 2.93003279,16.8576146 2.93029508,16.8578736 C3.02629508,16.9526677 3.15213115,17 3.27796721,17 C3.40386885,17 3.52977049,16.952603 3.62577049,16.8577441 C3.63396721,16.8496503 3.64137705,16.8410386 3.64885246,16.8324916 L5.16439344,15.3359233 C5.35645902,15.1462056 5.35645902,14.8387723 5.16439344,14.6491194 C4.97232787,14.4595312 4.66091803,14.4595312 4.46891803,14.6491194 L3.28622951,15.8169516 C1.90714754,14.3016058 1.10708197,12.3944574 0.99704918,10.3600104 L2.66963934,10.3600104 C2.9412459,10.3600104 3.16144262,10.1426444 3.16144262,9.87438487 C3.16144262,9.60612536 2.9412459,9.38875939 2.66963934,9.38875939 L0.997180328,9.38875939 C1.11154098,7.2991453 1.95901639,5.3989899 3.28944262,3.93492618 L4.46891803,5.0995856 C4.56491803,5.19437969 4.69081967,5.24177674 4.81665574,5.24177674 C4.9424918,5.24177674 5.06839344,5.19437969 5.16439344,5.0995856 C5.35645902,4.90986791 5.35645902,4.6024346 5.16439344,4.41278166 L3.98498361,3.2480575 C5.4677377,1.93434343 7.392,1.0975136 9.50819672,0.984654235 L9.50819672,2.63616939 C9.50819672,2.9044289 9.72839344,3.12179487 10,3.12179487 C10.2716066,3.12179487 10.4918033,2.9044289 10.4918033,2.63616939 L10.4918033,0.984654235 C12.608,1.0975136 14.5322623,1.93440818 16.0150164,3.24812225 L14.835541,4.41278166 C14.6434754,4.60249935 14.6434754,4.90993266 14.835541,5.0995856 C14.931541,5.19437969 15.0574426,5.24177674 15.1832787,5.24177674 C15.3091148,5.24177674 15.4350164,5.19437969 15.5310164,5.0995856 L16.7104918,3.93492618 C18.040918,5.39905465 18.888459,7.2991453 19.0027541,9.38875939 L17.3302295,9.38875939 C17.058623,9.38875939 16.8384262,9.60612536 16.8384262,9.87438487 C16.8384262,10.1426444 17.058623,10.3600104 17.3302295,10.3600104 L19.0028197,10.3600104 C18.8927869,12.3944574 18.0927869,14.3016706 16.7137049,15.8170163 L15.5310164,14.6491194 C15.3390164,14.4595312 15.0276066,14.4595312 14.835541,14.6491194 C14.6434754,14.8388371 14.6434754,15.1462704 14.835541,15.3359233 L16.375541,16.8565786 C16.471541,16.9513727 16.5974426,16.9987697 16.7232787,16.9987697 C16.7861639,16.9987697 16.8491148,16.9869205 16.9083279,16.963222 C16.967541,16.9395234 17.0230164,16.9039757 17.071082,16.8565786 C18.9598033,14.9915177 20,12.5118493 20,9.87438487 Z" id="Shape"></path>
                    <path d="M11.7189502,4.03775974 C11.489529,3.93005801 11.2292758,4.06061403 11.1374358,4.32941408 L9.84493634,8.11050672 C9.78470358,8.10295851 9.72447083,8.09778659 9.66417845,8.09778659 C9.03465674,8.09778659 8.46602378,8.50643814 8.1800673,9.16425041 C7.88116973,9.85190606 7.95774285,10.6735424 8.38473939,11.3619668 C8.42839322,11.4323469 8.4832587,11.4967163 8.54373,11.5482258 C8.89063486,11.843794 9.27809247,12 9.66417845,12 C10.2937002,12 10.8623927,11.5913485 11.1482896,10.9335362 C11.4471872,10.2458805 11.370614,9.4243141 10.9439157,8.73637889 C10.9002619,8.66578918 10.8452771,8.60121007 10.7846269,8.54949087 C10.7520058,8.52167433 10.7186691,8.49630397 10.6853323,8.4710035 L11.9678128,4.7191951 C12.0596529,4.45053484 11.9482521,4.14539158 11.7189502,4.03775974 Z M10.35113,10.4576497 C10.2186776,10.7623037 9.95544256,10.951568 9.66411881,10.951568 C9.47304382,10.951568 9.28071647,10.8733602 9.09226549,10.7190413 C8.87757449,10.3577757 8.83541157,9.96610763 8.97716726,9.64006702 C9.10956004,9.335413 9.37279506,9.14614869 9.66417845,9.14614869 C9.75709194,9.14614869 9.85024397,9.16501921 9.94315747,9.20171188 C9.94619892,9.20317959 9.94900183,9.20506664 9.95210292,9.20653435 C9.96188329,9.21107725 9.9717233,9.21478146 9.9815633,9.21848568 C10.0668433,9.25685573 10.1517655,9.30969318 10.2359721,9.37860551 C10.4506035,9.73987109 10.4928261,10.1316091 10.35113,10.4576497 Z" id="Shape"></path>
                </g>
            </g>
        </g>
    </g>
</svg>